<svg xmlns="http://www.w3.org/2000/svg" xmlns:xlink="http://www.w3.org/1999/xlink" width="142.501" height="134.95" viewBox="0 0 142.501 134.95">
  <defs>
    <clipPath id="clip-path">
      <path id="Trazado_1966" data-name="Trazado 1966" d="M990.783,724.877a5.076,5.076,0,0,0,5.075,5.075h56.371a5.075,5.075,0,0,0,5.075-5.075v-34.3H990.783Z" transform="translate(-990.783 -690.579)" fill="none"/>
    </clipPath>
  </defs>
  <g id="Grupo_1255" data-name="Grupo 1255" transform="translate(98 361)" opacity="0.72">
    <g id="Grupo_1254" data-name="Grupo 1254" transform="translate(-98 -361)">
      <g id="Grupo_1216" data-name="Grupo 1216" transform="translate(0 0)">
        <path id="Trazado_1955" data-name="Trazado 1955" d="M589.339,826.38l-.151-.159.952-.908.151.158Zm1.9-1.822-.154-.156c.309-.3.62-.619.922-.934l.158.152C591.863,823.936,591.551,824.252,591.241,824.558Zm1.827-1.9-.162-.148c.291-.319.584-.65.871-.983l.166.144C593.654,822,593.36,822.335,593.068,822.656Zm1.724-2-.169-.139c.274-.333.55-.679.821-1.025l.173.135C595.344,819.979,595.067,820.325,594.792,820.66Zm1.623-2.078-.176-.131c.257-.346.517-.7.772-1.062l.179.127C596.935,817.876,596.674,818.235,596.415,818.582Zm1.526-2.15-.182-.123q.368-.544.726-1.1l.184.119Q598.311,815.887,597.942,816.433Zm12.016-1.521a3.211,3.211,0,0,1-1.182-.225l.081-.2a3,3,0,0,0,1.1.209c.055-.005.095,0,.142,0l.011.219C610.059,814.911,610,814.908,609.957,814.912Zm1.456-.375-.11-.19a2.382,2.382,0,0,0,.875-.883l.19.109A2.6,2.6,0,0,1,611.414,814.537Zm-12.038-.317-.186-.116q.346-.558.682-1.123l.188.112Q599.723,813.661,599.375,814.221Zm8.289-.306a3.843,3.843,0,0,1-.722-1.138l.2-.085a3.63,3.63,0,0,0,.68,1.073Zm5.068-1.649-.219,0V812.2a2.277,2.277,0,0,0-.194-.931q-.05-.11-.109-.214l.191-.108q.064.113.118.232a2.5,2.5,0,0,1,.213,1.022Zm-11.923-.23-.168-.141a8.342,8.342,0,0,1,.934-.949l.144.166A8.129,8.129,0,0,0,600.809,812.036Zm5.794-.557a5.343,5.343,0,0,1-.038-.635,5.641,5.641,0,0,1,.045-.7l.218.027a5.412,5.412,0,0,0-.043.677,5.1,5.1,0,0,0,.036.608Zm-3.838-1.135-.115-.187a9.019,9.019,0,0,1,1.181-.614l.087.2A8.8,8.8,0,0,0,602.765,810.344Zm8.6-.226a4.824,4.824,0,0,0-1.121-.624l.082-.2a5.042,5.042,0,0,1,1.171.653Zm-6.223-.8-.058-.212a9.439,9.439,0,0,1,1.305-.258l.027.218A9.2,9.2,0,0,0,605.144,809.317Zm3.861-.182a7.965,7.965,0,0,0-1.29-.135l.005-.219a8.181,8.181,0,0,1,1.325.139Zm-1.875-.222-.206-.074a6.559,6.559,0,0,1,.579-1.2l.187.115A6.336,6.336,0,0,0,607.13,808.914Zm1.341-2.193-.161-.149q.1-.1.2-.2a7.122,7.122,0,0,1,.8-.683l.13.177a6.88,6.88,0,0,0-.778.662Q608.564,806.621,608.471,806.721Zm2.076-1.529-.1-.2a8.168,8.168,0,0,1,1.238-.492l.064.21A7.983,7.983,0,0,0,610.547,805.191Zm2.474-.805-.054-.212c.429-.11.855-.225,1.268-.342l.06.211C613.88,804.16,613.452,804.275,613.021,804.386Zm2.537-.721-.066-.209c.423-.133.842-.272,1.246-.413l.072.207C616.4,803.391,615.983,803.531,615.558,803.665Zm2.491-.871-.079-.2c.411-.159.819-.326,1.214-.5l.087.2C618.873,802.465,618.462,802.633,618.049,802.793Zm2.423-1.047-.095-.2,1.183-.575.1.2Zm2.368-1.151-.1-.2,1.184-.575.1.2Zm2.367-1.151-.1-.2,1.183-.575.1.2Zm2.367-1.151-.1-.2,1.184-.575.1.2Zm2.367-1.151-.1-.2,1.184-.575.1.2Z" transform="translate(-554.13 -747.519)" fill="#9192ff"/>
        <path id="Trazado_1956" data-name="Trazado 1956" d="M1007.627,248.339a1.116,1.116,0,0,0,.005.134h28.842a4.569,4.569,0,0,0-4.683-4.284,4.9,4.9,0,0,0-2.244.538,5.115,5.115,0,0,0-2.493-4.573,5.293,5.293,0,0,0-7.178,2.161,5.761,5.761,0,0,0-.758,2.482,10.428,10.428,0,0,0-4.3-.876C1010.848,243.921,1007.627,245.9,1007.627,248.339Z" transform="translate(-935.86 -239.497)" fill="#ebebff"/>
        <path id="Trazado_1957" data-name="Trazado 1957" d="M213.342,1030.37H189.559l0-.085a3.8,3.8,0,0,1,3.918-3.589,4.13,4.13,0,0,1,1.755.391,4.283,4.283,0,0,1,2.083-3.685,4.137,4.137,0,0,1,3.169-.4,4.637,4.637,0,0,1,2.824,2.2,4.776,4.776,0,0,1,.622,1.951,8.66,8.66,0,0,1,3.447-.677c3.295,0,5.975,1.66,5.975,3.7a1,1,0,0,1,0,.119Zm-23.612-.164h23.461v-.027c0-1.95-2.607-3.537-5.811-3.537a8.435,8.435,0,0,0-3.486.71l-.108.05-.008-.119a4.606,4.606,0,0,0-.61-2,4.473,4.473,0,0,0-2.724-2.124,3.975,3.975,0,0,0-3.044.385,4.128,4.128,0,0,0-2,3.673l0,.137-.122-.063a3.954,3.954,0,0,0-1.8-.432A3.647,3.647,0,0,0,189.73,1030.205Z" transform="translate(-189.559 -954.131)" fill="#9192ff"/>
      </g>
      <g id="Grupo_1230" data-name="Grupo 1230" transform="translate(70.18 13.547)">
        <g id="Grupo_1220" data-name="Grupo 1220" transform="translate(0.11 26.025)">
          <g id="Grupo_1219" data-name="Grupo 1219" clip-path="url(#clip-path)">
            <path id="Trazado_1958" data-name="Trazado 1958" d="M990.783,724.877a5.076,5.076,0,0,0,5.075,5.075h56.371a5.075,5.075,0,0,0,5.075-5.075v-34.3H990.783Z" transform="translate(-990.783 -690.579)" fill="#fff"/>
            <path id="Trazado_1959" data-name="Trazado 1959" d="M851.169,742.15a6.861,6.861,0,0,1,5.926-4.609,6.98,6.98,0,0,1,6.607,3.665,4.112,4.112,0,0,1,3.534,1.989,3.824,3.824,0,0,1-.123,3.947,5.582,5.582,0,0,1,3.986,2.922,5.237,5.237,0,0,1-.107,4.829,6.41,6.41,0,0,1,6.07.22,5.969,5.969,0,0,1,2.869,5.177,6.386,6.386,0,0,1,10.969.5,10.147,10.147,0,0,1,7.127-6.457,10.574,10.574,0,0,1,9.462,2.4,6.809,6.809,0,0,1,5.448,8.116,7.487,7.487,0,0,1,2.61,6.87,7.656,7.656,0,0,1-4.707,5.72L847,777.394l-5.442-24.356Z" transform="translate(-854.65 -733.404)" fill="#d1d1ff"/>
            <g id="Grupo_1217" data-name="Grupo 1217" transform="translate(-13.787 12.202)" opacity="0.8">
              <path id="Trazado_1960" data-name="Trazado 1960" d="M842.917,834.3a6.519,6.519,0,0,1,12.109-.955,3.857,3.857,0,0,1,3.291,5.933,5.311,5.311,0,0,1,3.742,7.747,5.889,5.889,0,0,1,8.632,5.39,6.065,6.065,0,0,1,10.6.491,9.771,9.771,0,0,1,16.03-4.072,6.791,6.791,0,0,1,5.257,8.111,7.47,7.47,0,0,1-2.037,12.591l-61.677.009L833.624,845.2Z" transform="translate(-833.624 -829.668)" fill="#fff"/>
            </g>
            <g id="Grupo_1218" data-name="Grupo 1218" transform="translate(-4.64 1.098)">
              <path id="Trazado_1961" data-name="Trazado 1961" d="M987.069,703.095c-18.476,17.375-31.578,22.06-48.084,23.735l-1.1,17.545,17.326,5.922c15.133-.439,29.663-22.346,38.639-41.14l-6.785-6.062" transform="translate(-937.888 -703.095)" fill="#fff2e0" opacity="0.7"/>
              <path id="Trazado_1962" data-name="Trazado 1962" d="M1394.248,705.669c-3,3.554-7.534,6.953-12.877,11.545l7.291-2.971a49.668,49.668,0,0,1-2.926,4.444,24.616,24.616,0,0,0,5.28-3.387c0,1.263-1.521,3.374-2.184,4.528,3.889-3.328,7.426-7.391,8.569-10.96l-3.152-3.2" transform="translate(-1342.465 -705.443)" fill="#ffa121"/>
              <path id="Trazado_1963" data-name="Trazado 1963" d="M1459.049,707.717c-1.777,2.356-4.436,4.626-7.579,7.684l4.254-2.019c-.533.978-1.309,2.348-1.741,2.937a14.887,14.887,0,0,0,3.094-2.27,9.482,9.482,0,0,1-1.312,2.984c2.287-2.217,4.379-4.911,5.077-7.257l-1.793-2.059" transform="translate(-1406.415 -707.312)" fill="#fff" opacity="0.4"/>
            </g>
            <path id="Trazado_1964" data-name="Trazado 1964" d="M1194.832,826.685c.024.549,0,1.477-.549,1.794-.916.53-1.637-.757-1.973-1.4a1.392,1.392,0,0,1,.608-2.076C1194.117,824.543,1194.788,825.66,1194.832,826.685Z" transform="translate(-1174.427 -813.111)" fill="#d1d1ff"/>
            <path id="Trazado_1965" data-name="Trazado 1965" d="M1689.952,1016.793c.024.549,0,1.477-.549,1.794-.916.53-1.637-.757-1.973-1.4a1.392,1.392,0,0,1,.608-2.077C1689.237,1014.651,1689.908,1015.768,1689.952,1016.793Z" transform="translate(-1626.111 -986.541)" fill="#d1d1ff"/>
            <circle id="Elipse_87" data-name="Elipse 87" cx="0.768" cy="0.768" r="0.768" transform="translate(14.769 6.593)" fill="#d1d1ff"/>
            <circle id="Elipse_88" data-name="Elipse 88" cx="1.169" cy="1.169" r="1.169" transform="translate(53.009 20.688) rotate(-26.428)" fill="#d1d1ff"/>
          </g>
        </g>
        <g id="Grupo_1225" data-name="Grupo 1225" transform="translate(0 12.628)">
          <path id="Trazado_1967" data-name="Trazado 1967" d="M1051.089,728.921H994.719a5.191,5.191,0,0,1-5.185-5.185V689.329h66.74v34.407A5.191,5.191,0,0,1,1051.089,728.921Zm-61.336-39.373v34.188a4.971,4.971,0,0,0,4.965,4.965h56.371a4.971,4.971,0,0,0,4.965-4.965V689.548Z" transform="translate(-989.534 -676.041)" fill="#9192ff"/>
          <g id="Grupo_1221" data-name="Grupo 1221">
            <path id="Trazado_1968" data-name="Trazado 1968" d="M1052.229,539.112H995.858a5.075,5.075,0,0,0-5.075,5.075V552.4H1057.3v-8.213A5.075,5.075,0,0,0,1052.229,539.112Z" transform="translate(-990.674 -539.002)" fill="#fff"/>
            <path id="Trazado_1969" data-name="Trazado 1969" d="M1056.274,551.368h-66.74v-8.322a5.191,5.191,0,0,1,5.185-5.185h56.371a5.191,5.191,0,0,1,5.185,5.185Zm-66.521-.219h66.3v-8.1a4.971,4.971,0,0,0-4.965-4.965H994.719a4.971,4.971,0,0,0-4.965,4.965Z" transform="translate(-989.534 -537.861)" fill="#9192ff"/>
          </g>
          <g id="Grupo_1224" data-name="Grupo 1224" transform="translate(3.53 2.819)">
            <circle id="Elipse_89" data-name="Elipse 89" cx="2.782" cy="2.782" r="2.782" transform="matrix(0.199, -0.98, 0.98, 0.199, 0, 6.108)" fill="#d1d1ff"/>
            <g id="Grupo_1222" data-name="Grupo 1222" transform="translate(7.541 0)">
              <circle id="Elipse_90" data-name="Elipse 90" cx="2.782" cy="2.782" r="2.782" transform="translate(0 3.935) rotate(-45)" fill="#fff"/>
              <path id="Trazado_1970" data-name="Trazado 1970" d="M1130.514,587.663a2.892,2.892,0,1,1,2.892-2.892A2.9,2.9,0,0,1,1130.514,587.663Zm0-5.565a2.673,2.673,0,1,0,2.673,2.673A2.676,2.676,0,0,0,1130.514,582.1Z" transform="translate(-1126.579 -580.836)" fill="#9192ff"/>
            </g>
            <g id="Grupo_1223" data-name="Grupo 1223" transform="translate(18.812 1.169)">
              <rect id="Rectángulo_966" data-name="Rectángulo 966" width="16.39" height="5.312" rx="2.656" transform="translate(0.11 0.11)" fill="#fff"/>
              <path id="Trazado_1971" data-name="Trazado 1971" d="M1258.063,588.853h-11.079a2.765,2.765,0,0,1,0-5.531h11.079a2.765,2.765,0,1,1,0,5.531Zm-11.079-5.312a2.546,2.546,0,1,0,0,5.092h11.079a2.546,2.546,0,0,0,0-5.092Z" transform="translate(-1244.219 -583.322)" fill="#9192ff"/>
            </g>
          </g>
        </g>
        <g id="Grupo_1229" data-name="Grupo 1229" transform="translate(43.778)">
          <g id="Grupo_1226" data-name="Grupo 1226" transform="translate(0.365 6.684)">
            <path id="Trazado_1972" data-name="Trazado 1972" d="M1509.118,470.111c-4.442,3.889-12.1,1.208-14.485,4.314l6.8,5.387Z" transform="translate(-1494.465 -470.111)" fill="#3335cf"/>
            <path id="Trazado_1973" data-name="Trazado 1973" d="M1492.884,519.283h0a2.63,2.63,0,0,0,.481,2.654l4.821,5.522,1.5-2.789Z" transform="translate(-1492.716 -514.969)" fill="#d1d1ff"/>
          </g>
          <g id="Grupo_1227" data-name="Grupo 1227" transform="translate(15.034 14.658)">
            <path id="Trazado_1974" data-name="Trazado 1974" d="M1694.642,561c-2.767,5.216,1.6,12.059-.878,15.088l-6.8-5.387Z" transform="translate(-1684.589 -560.998)" fill="#3335cf"/>
            <path id="Trazado_1975" data-name="Trazado 1975" d="M1669.112,676.967h0a2.63,2.63,0,0,1-2.694.141l-6.48-3.427,2.371-2.1Z" transform="translate(-1659.938 -661.879)" fill="#d1d1ff"/>
          </g>
          <path id="Trazado_1976" data-name="Trazado 1976" d="M1750.938,393.916l-6.057,2.224,5.281,4.182Z" transform="translate(-1722.394 -393.916)" fill="#1b1b43"/>
          <path id="Trazado_1977" data-name="Trazado 1977" d="M1551.683,423.446c-.846,9.585-7.928,18.528-16.529,23.5l-7.838-6.2c3.289-10.348,9.414-17.753,19.086-21.477Z" transform="translate(-1523.916 -417.04)" fill="#c5c5ff"/>
          <path id="Trazado_1978" data-name="Trazado 1978" d="M1491.961,664.079l-3.4,2.354,9.725,7.7,1.513-3.854Z" transform="translate(-1488.561 -640.378)" fill="#3335cf"/>
          <g id="Grupo_1228" data-name="Grupo 1228" transform="translate(16.17 6.479)">
            <circle id="Elipse_91" data-name="Elipse 91" cx="3.638" cy="3.638" r="3.638" transform="translate(0 0.859) rotate(-6.78)" fill="#fff"/>
            <path id="Trazado_1979" data-name="Trazado 1979" d="M1692.375,489.523l-.023-.218a2.389,2.389,0,0,0,.609-.148l.079.2A2.6,2.6,0,0,1,1692.375,489.523Zm-.685-.017a2.568,2.568,0,0,1-.656-.2l.09-.2a2.358,2.358,0,0,0,.6.18Zm1.95-.475-.13-.176a2.38,2.38,0,0,0,.45-.436l.172.136A2.587,2.587,0,0,1,1693.641,489.031Zm-3.188-.084a2.59,2.59,0,0,1-.467-.5l.179-.127a2.377,2.377,0,0,0,.428.458Zm3.948-.805-.194-.1a2.37,2.37,0,0,0,.213-.589l.214.047A2.585,2.585,0,0,1,1694.4,488.142Zm-4.734-.3a2.611,2.611,0,0,1-.149-.668l.219-.019a2.387,2.387,0,0,0,.137.612Zm4.8-1.014a2.408,2.408,0,0,0-.114-.617l.208-.068a2.609,2.609,0,0,1,.124.673Zm-4.708-.3-.216-.039a2.569,2.569,0,0,1,.209-.652l.2.094A2.357,2.357,0,0,0,1689.763,486.526Zm4.323-.882a2.365,2.365,0,0,0-.41-.474l.146-.164a2.592,2.592,0,0,1,.448.518Zm-3.79-.241-.167-.142a2.594,2.594,0,0,1,.509-.458l.124.181A2.373,2.373,0,0,0,1690.3,485.4Zm2.86-.584a2.358,2.358,0,0,0-.593-.2l.042-.215a2.586,2.586,0,0,1,.649.221Zm-1.834-.117-.072-.207a2.613,2.613,0,0,1,.671-.137l.016.219A2.388,2.388,0,0,0,1691.322,484.7Z" transform="translate(-1688.058 -482.903)" fill="#9192ff"/>
          </g>
          <rect id="Rectángulo_967" data-name="Rectángulo 967" width="1.401" height="12.169" rx="0.701" transform="translate(9.205 23.292) rotate(38.375)" fill="#1b1b43"/>
        </g>
      </g>
      <g id="Grupo_1232" data-name="Grupo 1232" transform="translate(94.692 93.804)">
        <path id="Trazado_1980" data-name="Trazado 1980" d="M1335.338,1380.992h-1.316v-.219h1.316Zm-2.632,0h-1.316v-.219h1.316Zm-2.632,0h-1.316v-.219h1.316Zm-2.632,0h-1.316v-.219h1.316Zm-2.632,0h-1.316v-.219h1.316Zm-2.632,0h-1.316v-.219h1.316Zm-2.632,0h-1.316v-.219h1.316Zm-2.632,0H1315.6v-.219h1.316Zm-2.632,0h-1.316v-.219h1.316Zm-2.632,0h-1.316v-.219h1.316Zm-2.633,0a4.2,4.2,0,0,1-1.326-.226l.071-.208a3.98,3.98,0,0,0,1.257.214Zm26.478,0-.008-.219a3.966,3.966,0,0,0,1.25-.25l.077.205A4.21,4.21,0,0,1,1335.5,1380.99Zm-28.989-.859a4.222,4.222,0,0,1-.926-.976l.181-.124a3.992,3.992,0,0,0,.877.925Zm31.476-.073-.138-.171a3.987,3.987,0,0,0,.851-.95l.185.119A4.219,4.219,0,0,1,1337.982,1380.058Zm-32.972-2.12a4.207,4.207,0,0,1-.16-1.152v-.179h.219v.179a3.991,3.991,0,0,0,.151,1.092Zm34.405-.115-.213-.054a4.018,4.018,0,0,0,.122-.982v-.3h.219v.3A4.229,4.229,0,0,1,1339.416,1377.822Zm-34.346-2.532h-.219v-1.316h.219Zm34.474-.116h-.219v-1.316h.219Zm-34.474-2.515h-.219v-1.316h.219Zm34.474-.116h-.219v-1.316h.219Zm-34.474-2.515h-.219v-1.316h.219Zm34.474-.116h-.219v-1.316h.219Zm-34.474-2.515h-.219v-1.316h.219Zm34.474-.116h-.219v-1.316h.219Zm-34.474-2.515h-.219v-1.316h.219Zm34.474-.116h-.219v-1.316h.219Zm-34.474-2.515h-.219v-.877a4.265,4.265,0,0,1,.024-.45l.218.023a4.088,4.088,0,0,0-.022.427Zm34.474-.116h-.219v-.76a4.059,4.059,0,0,0-.036-.539l.217-.029a4.262,4.262,0,0,1,.038.568Zm-34.115-2.417-.2-.091a4.213,4.213,0,0,1,.748-1.118l.161.149A3.986,3.986,0,0,0,1305.429,1359.6Zm33.488-.1a4,4,0,0,0-.739-1.04l.156-.154a4.21,4.21,0,0,1,.779,1.1Zm-31.773-1.741-.105-.192a4.173,4.173,0,0,1,1.268-.448l.039.216A3.951,3.951,0,0,0,1307.144,1357.755Zm30.007-.053a3.958,3.958,0,0,0-1.213-.391l.033-.217a4.182,4.182,0,0,1,1.281.412Zm-2.511-.435h-1.316v-.219h1.316Zm-2.632,0h-1.316v-.219h1.316Zm-2.632,0h-1.316v-.219h1.316Zm-2.632,0h-1.316v-.219h1.316Zm-2.632,0H1322.8v-.219h1.316Zm-2.632,0h-1.316v-.219h1.316Zm-2.632,0h-1.316v-.219h1.316Zm-2.632,0H1314.9v-.219h1.316Zm-2.632,0h-1.316v-.219h1.316Zm-2.632,0h-1.316v-.219h1.316Z" transform="translate(-1301.702 -1352.813)" fill="#9192ff"/>
        <rect id="Rectángulo_968" data-name="Rectángulo 968" width="34.474" height="24.378" rx="12.189" fill="#9192ff"/>
        <g id="Grupo_1231" data-name="Grupo 1231" transform="translate(5.994 7.373)">
          <rect id="Rectángulo_969" data-name="Rectángulo 969" width="3.733" height="7.581" transform="translate(0 6.866)" fill="#fff"/>
          <rect id="Rectángulo_970" data-name="Rectángulo 970" width="3.733" height="7.337" transform="translate(6.251 7.11)" fill="#fff"/>
          <rect id="Rectángulo_971" data-name="Rectángulo 971" width="3.733" height="11.17" transform="translate(12.502 3.277)" fill="#fff"/>
          <rect id="Rectángulo_972" data-name="Rectángulo 972" width="3.733" height="14.447" transform="translate(18.753)" fill="#fff"/>
        </g>
        <rect id="Rectángulo_973" data-name="Rectángulo 973" width="20.029" height="0.876" transform="translate(7.223 3.433)" fill="#fff"/>
      </g>
      <g id="Grupo_1249" data-name="Grupo 1249" transform="translate(13.611 48.855)">
        <g id="Grupo_1245" data-name="Grupo 1245" transform="translate(3.166)">
          <g id="Grupo_1233" data-name="Grupo 1233" transform="translate(19.592 15.118)">
            <path id="Trazado_1981" data-name="Trazado 1981" d="M608.685,974.75a10.4,10.4,0,0,0-3.822-5.488l-.741-.545.629,13,4.86-3.76Z" transform="translate(-604.123 -968.717)" fill="#ffa121"/>
            <path id="Trazado_1982" data-name="Trazado 1982" d="M630.839,1086.6l-1.08-2.114a2.146,2.146,0,0,0-1.339-1.092l-3.177-.88-8.173-5.218-.924-3.2-4.86,3.76.044.914a4.806,4.806,0,0,0,2.9,4.181l7.936,3.423,3.772.084c1.215.419,1.635,1.467,2.389,1.09.281-.14-.817-1.949-.817-1.949l1.823,2.012Z" transform="translate(-610.659 -1064.85)" fill="#ffbc96"/>
            <rect id="Rectángulo_974" data-name="Rectángulo 974" width="1.65" height="0.251" transform="translate(5.248 13.624) rotate(-49.665)" fill="#d28572"/>
          </g>
          <g id="Grupo_1235" data-name="Grupo 1235" transform="translate(25.559 41.587)">
            <path id="Trazado_1983" data-name="Trazado 1983" d="M672.133,1270.989l5.946-.525a7.013,7.013,0,0,1,7.426,6.894l1.344,29.284-8.2.256Z" transform="translate(-672.133 -1270.439)" fill="#26289c"/>
            <g id="Grupo_1234" data-name="Grupo 1234" transform="translate(7.173 35.371)">
              <path id="Trazado_1984" data-name="Trazado 1984" d="M753.9,1674.433l.251,8.089H766.3l-5.993-4.988-.377-3.9Z" transform="translate(-753.898 -1673.637)" fill="#1b1b43"/>
              <rect id="Rectángulo_975" data-name="Rectángulo 975" width="3.228" height="0.503" transform="matrix(0.792, -0.61, 0.61, 0.792, 3.702, 5.668)" fill="#fff"/>
            </g>
          </g>
          <g id="Grupo_1237" data-name="Grupo 1237" transform="translate(1.993 38.064)">
            <g id="Grupo_1236" data-name="Grupo 1236" transform="translate(27.972 38.894)">
              <path id="Trazado_1985" data-name="Trazado 1985" d="M722.366,1674.433l.251,8.089h12.154l-5.993-4.988-.377-3.9Z" transform="translate(-722.366 -1673.637)" fill="#d1d1ff"/>
              <rect id="Rectángulo_976" data-name="Rectángulo 976" width="3.228" height="0.503" transform="matrix(0.792, -0.61, 0.61, 0.792, 3.702, 5.668)" fill="#fff"/>
            </g>
            <path id="Trazado_1986" data-name="Trazado 1986" d="M440.536,1270.772H430.478l-7.169-22.059-1-3.088-14.334-.063a3.968,3.968,0,0,1-2.452-1.029,5.836,5.836,0,0,1-1.949-5.278l1.257-8.97,21.295,2.769a9.563,9.563,0,0,1,8.13,7.534Z" transform="translate(-403.511 -1230.285)" fill="#3335cf"/>
            <path id="Trazado_1987" data-name="Trazado 1987" d="M620.694,1405.141l-1.951,3.088-1-3.088Z" transform="translate(-598.946 -1389.802)" fill="#1b1b43"/>
          </g>
          <g id="Grupo_1238" data-name="Grupo 1238" transform="translate(0 14.363)">
            <path id="Trazado_1988" data-name="Trazado 1988" d="M401.9,982.194q-.155.622-.322,1.247l-.754,3.081-9.933-.413-7.152-.3a3.072,3.072,0,0,1-2.882-3.7l3.335-16.046a6.091,6.091,0,0,1,5.392-5.112l8.16-.84,2.64.754c2.578,1.383,2.58,3.89,2.7,5.532A45.522,45.522,0,0,1,401.9,982.194Z" transform="translate(-380.791 -960.117)" fill="#ffa121"/>
            <path id="Trazado_1989" data-name="Trazado 1989" d="M437.427,1091.3c-.1.415,6.523,1.343,6.413,1.76l-.754,3.081-9.933-.412c-3.47-2.618-4.77-8.314-6.035-15.45Z" transform="translate(-423.053 -1069.739)" fill="#1b1b43" opacity="0.3"/>
            <path id="Trazado_1990" data-name="Trazado 1990" d="M521.357,1013.027a5.971,5.971,0,0,0,1.484,1.177,4.9,4.9,0,0,0,1.774.6,2.984,2.984,0,0,0,1.8-.265,1.856,1.856,0,0,0,.97-1.482l.1.007a2.03,2.03,0,0,1-.25.957,1.906,1.906,0,0,1-.71.71,3.1,3.1,0,0,1-1.945.321,4.835,4.835,0,0,1-1.848-.662,5.218,5.218,0,0,1-1.453-1.3Z" transform="translate(-508.957 -1008.385)" fill="#1b1b43"/>
            <path id="Trazado_1991" data-name="Trazado 1991" d="M629.83,1028.243l-.188-.013a43.191,43.191,0,0,0-.544-9.242l.186-.028A43.365,43.365,0,0,1,629.83,1028.243Z" transform="translate(-607.315 -1013.798)" fill="#1b1b43"/>
          </g>
          <g id="Grupo_1239" data-name="Grupo 1239" transform="translate(30.049 23.06)">
            <rect id="Rectángulo_977" data-name="Rectángulo 977" width="9.346" height="1.844" transform="translate(0 14.669)" fill="#1b1b43"/>
            <path id="Trazado_1992" data-name="Trazado 1992" d="M819.016,1075.763H800.24l8.634-16.513H827.65Z" transform="translate(-793.492 -1059.25)" fill="#9192ff"/>
          </g>
          <g id="Grupo_1242" data-name="Grupo 1242" transform="translate(4.167)">
            <path id="Trazado_1993" data-name="Trazado 1993" d="M438.59,797.554c-2.2-2.169-6.35-1.257-6.287,2.389-4.526,1.194-4.778,6.161-2.955,8.707l1.572.126.346-1.855.912,1.886,4.4.283Z" transform="translate(-428.289 -796.393)" fill="#1b1b43"/>
            <path id="Trazado_1994" data-name="Trazado 1994" d="M520.929,902.07V909c0,.063,0,.123-.008.184a2.326,2.326,0,0,1-2.9,2.07,4.677,4.677,0,0,1-3.508-4.567l.035-4.615Z" transform="translate(-506.95 -892.799)" fill="#ffbc96"/>
            <path id="Trazado_1995" data-name="Trazado 1995" d="M540.57,929.255v3.933c0,.063,0,.123-.007.184-1.853-.3-4-2.449-4.519-4.786Z" transform="translate(-526.591 -916.989)" fill="#1b1b43"/>
            <path id="Trazado_1996" data-name="Trazado 1996" d="M524.054,844.059a12.48,12.48,0,0,1-.395,1.65c-.553,1.758-1.547,3.216-3.324,2.962-4.179-.6-6.505-4.9-6.505-4.9l2.859-3.269,1.919-2.58,5.751,2.485A21.63,21.63,0,0,1,524.054,844.059Z" transform="translate(-506.325 -834.275)" fill="#ffbc96"/>
            <path id="Trazado_1997" data-name="Trazado 1997" d="M498.316,810.374c1.834-.059,3.253-.993,3.856-3.646,0,0,4.275,3.688,6.371,1.718,1.755-1.65-1.222-5.445-6.15-5.9a6.982,6.982,0,0,0-4.991,1.523c-2.388,1.914-2.616,6.365-.385,7.905Z" transform="translate(-489.575 -801.984)" fill="#1b1b43"/>
            <path id="Trazado_1998" data-name="Trazado 1998" d="M502.874,807.627a1.959,1.959,0,0,1,.163-1.327,2.948,2.948,0,0,1,.861-1.059,3.034,3.034,0,0,1,1.232-.576,2.221,2.221,0,0,1,1.328.1,7.347,7.347,0,0,0-1.137.46,6.17,6.17,0,0,0-.961.61,5.545,5.545,0,0,0-.822.778A4.608,4.608,0,0,0,502.874,807.627Z" transform="translate(-496.281 -803.888)" fill="#ffa121"/>
            <g id="Grupo_1240" data-name="Grupo 1240" transform="translate(6.221 6.549)">
              <ellipse id="Elipse_92" data-name="Elipse 92" cx="1.43" cy="1.728" rx="1.43" ry="1.728" transform="translate(0 1.063) rotate(-21.816)" fill="#ffbc96"/>
              <path id="Trazado_1999" data-name="Trazado 1999" d="M516.373,888.743a2.05,2.05,0,0,0-.056-.863,2.349,2.349,0,0,0-.452-.74l.062-.076a1.255,1.255,0,0,1,.54,1.708Z" transform="translate(-514.403 -885.657)" fill="#1b1b43"/>
            </g>
            <g id="Grupo_1241" data-name="Grupo 1241" transform="translate(11.402 7.208)">
              <path id="Trazado_2000" data-name="Trazado 2000" d="M591.118,890.749a.427.427,0,1,1-.425-.47A.449.449,0,0,1,591.118,890.749Z" transform="translate(-587.461 -889.25)" fill="#1b1b43"/>
              <path id="Trazado_2001" data-name="Trazado 2001" d="M617.53,895.031a.38.38,0,1,1-.324-.462A.4.4,0,0,1,617.53,895.031Z" transform="translate(-611.642 -893.161)" fill="#1b1b43"/>
              <path id="Trazado_2002" data-name="Trazado 2002" d="M581.7,878.872c.017.22-.334.241-.852.256s-.875.175-.88.037.379-.5.89-.582C581.385,878.493,581.68,878.61,581.7,878.872Z" transform="translate(-578.064 -878.553)" fill="#1b1b43"/>
              <path id="Trazado_2003" data-name="Trazado 2003" d="M618.519,881.786c-.038.216.22.272.6.339s.63.262.649.124a.93.93,0,0,0-.593-.667C618.8,881.441,618.565,881.528,618.519,881.786Z" transform="translate(-613.229 -881.255)" fill="#1b1b43"/>
              <path id="Trazado_2004" data-name="Trazado 2004" d="M610.645,904.311a3.675,3.675,0,0,0,.319.331l.17.158a.958.958,0,0,1,.179.2.361.361,0,0,1,.054.167.331.331,0,0,1-.042.178.619.619,0,0,1-.2.2,1.27,1.27,0,0,1-.47.17l-.037-.091a3.474,3.474,0,0,0,.375-.256.484.484,0,0,0,.117-.141c.02-.042.014-.056-.009-.1-.056-.092-.2-.214-.291-.341a1.424,1.424,0,0,1-.247-.428Z" transform="translate(-605.971 -902.051)" fill="#1b1b43"/>
              <path id="Trazado_2005" data-name="Trazado 2005" d="M586.416,921.954a3.152,3.152,0,0,0,.846.737,1.773,1.773,0,0,0,1.069.186l.026.095a1.323,1.323,0,0,1-.608.115,1.388,1.388,0,0,1-.606-.175,1.944,1.944,0,0,1-.81-.9Z" transform="translate(-583.87 -918.147)" fill="#1b1b43"/>
              <circle id="Elipse_93" data-name="Elipse 93" cx="1.038" cy="1.038" r="1.038" transform="translate(0 1.465)" fill="#fe5b52" opacity="0.2"/>
              <path id="Trazado_2006" data-name="Trazado 2006" d="M623.581,907.918a12.465,12.465,0,0,1-.395,1.65,1.037,1.037,0,0,1,.395-1.65Z" transform="translate(-617.254 -905.342)" fill="#fe5b52" opacity="0.2"/>
            </g>
          </g>
          <g id="Grupo_1244" data-name="Grupo 1244" transform="translate(4.064 20.296)">
            <g id="Grupo_1243" data-name="Grupo 1243" transform="translate(0 1.758)">
              <path id="Trazado_2007" data-name="Trazado 2007" d="M433.11,1047.784l-5.993,2.85,1.88,4.456,6.284-2.9Z" transform="translate(-427.117 -1047.784)" fill="#ffa121"/>
              <path id="Trazado_2008" data-name="Trazado 2008" d="M745.69,1221.26c-.166-.083-.27-.139-.27-.139l.06-.118s.111.053.271.14Z" transform="translate(-717.496 -1205.807)" fill="#c5c5ff"/>
              <path id="Trazado_2009" data-name="Trazado 2009" d="M477.331,1109.69c-.194.382-1.677-.294-2.369-.634.536.3,1.458.88,1.049,1.2-.329.254-1.059-.287-3.448-1.277.362.171,2.5,1.187,1.959,1.572-.586.417-3.1-.5-3.1-.5l-2.18,1.172h-2.515l-9.048.058a6.6,6.6,0,0,1-1.677-.211,7.523,7.523,0,0,1-2.942-1.524,7.388,7.388,0,0,1-1.4-1.567,8.365,8.365,0,0,1-.747-1.4l-2.386-5.653,6.284-2.9,3.279,6.656,10.813,2.349,3.018-.754a3.174,3.174,0,0,1,2.137.46C475.455,1107.587,477.512,1109.325,477.331,1109.69Z" transform="translate(-446.652 -1093.617)" fill="#ffbc96"/>
            </g>
            <path id="Trazado_2010" data-name="Trazado 2010" d="M488.747,1207.252a2.739,2.739,0,0,1-.164.935,7.522,7.522,0,0,1-2.942-1.524,7.387,7.387,0,0,1-1.4-1.567,2.767,2.767,0,0,1,4.5,2.155Z" transform="translate(-479.234 -1188.981)" fill="#fe5b52" opacity="0.2"/>
            <path id="Trazado_2011" data-name="Trazado 2011" d="M680.626,1191.806a20.565,20.565,0,0,1,2.285-.626,8.165,8.165,0,0,1,1.18-.168,3.562,3.562,0,0,1,.607.016c.1.02.2.047.3.071s.19.072.285.109a9.749,9.749,0,0,1,2,1.3c.62.494,1.2,1.024,1.773,1.578l.026.025.005.032a.476.476,0,0,1-.06.34.407.407,0,0,1-.137.121.391.391,0,0,1-.157.055,1.3,1.3,0,0,1-.565-.055,5.614,5.614,0,0,1-.976-.41c-.308-.164-.611-.336-.905-.52s-.583-.376-.875-.564l.133-.212a15.588,15.588,0,0,1,1.493.989,4,4,0,0,1,.675.62.886.886,0,0,1,.131.221.412.412,0,0,1,.03.153.294.294,0,0,1-.065.172.459.459,0,0,1-.255.142,1.455,1.455,0,0,1-.242.035l-.025,0-.027-.011-2.73-1.144.082-.192a9.545,9.545,0,0,1,1.248.673,1.7,1.7,0,0,1,.543.505.3.3,0,0,1,.022.24.324.324,0,0,1-.162.167.905.905,0,0,1-.376.084,5.3,5.3,0,0,1-1.4-.216c-.455-.12-.9-.262-1.343-.422l.033-.093c.441.148.89.278,1.342.386a5.189,5.189,0,0,0,1.363.178c.214-.008.469-.1.365-.244a1.589,1.589,0,0,0-.486-.429,9.349,9.349,0,0,0-1.227-.641l.082-.192,2.74,1.12-.051-.009a1.264,1.264,0,0,0,.2-.029.249.249,0,0,0,.128-.062c.038-.015-.013-.15-.1-.251a3.8,3.8,0,0,0-.634-.574,15.444,15.444,0,0,0-1.471-.964l.133-.212c.289.185.57.385.864.56s.587.353.887.515a5.385,5.385,0,0,0,.928.4,1.094,1.094,0,0,0,.455.053l.049-.009a.273.273,0,0,0,.037-.019c.029-.008.038-.031.057-.046a.252.252,0,0,0,.027-.158l.032.057c-.556-.549-1.142-1.075-1.746-1.572a9.585,9.585,0,0,0-1.934-1.3l-.265-.105c-.091-.022-.18-.047-.272-.067a3.424,3.424,0,0,0-.572-.021,8.248,8.248,0,0,0-1.16.141,20.428,20.428,0,0,0-2.283.571Z" transform="translate(-658.386 -1176.683)" fill="#d28572"/>
            <path id="Trazado_2012" data-name="Trazado 2012" d="M448.158,1036.895l-.079-.171,6.2-2.861-2.583-6.044.174-.074,2.655,6.213Z" transform="translate(-446.24 -1027.744)" fill="#1b1b43"/>
          </g>
        </g>
        <g id="Grupo_1246" data-name="Grupo 1246" transform="translate(0 53.278)">
          <rect id="Rectángulo_978" data-name="Rectángulo 978" width="0.329" height="28.332" transform="translate(9.706 2.64)" fill="#1b1b43"/>
          <rect id="Rectángulo_979" data-name="Rectángulo 979" width="19.74" height="3.898" rx="1.949" fill="#d1d1ff"/>
          <path id="Rectángulo_980" data-name="Rectángulo 980" d="M3.252,0h6.823a3.252,3.252,0,0,1,3.252,3.252v0a0,0,0,0,1,0,0H0a0,0,0,0,1,0,0v0A3.252,3.252,0,0,1,3.252,0Z" transform="translate(3.206 29.564)" fill="#d1d1ff"/>
        </g>
        <g id="Grupo_1248" data-name="Grupo 1248" transform="translate(18.336 39.573)">
          <g id="Grupo_1247" data-name="Grupo 1247" transform="translate(10.417 1.731)">
            <rect id="Rectángulo_981" data-name="Rectángulo 981" width="0.329" height="52.628" transform="translate(0.006 0.176) rotate(-32.247)" fill="#1b1b43"/>
            <rect id="Rectángulo_982" data-name="Rectángulo 982" width="52.628" height="0.329" transform="translate(0 44.507) rotate(-57.738)" fill="#1b1b43"/>
          </g>
          <rect id="Rectángulo_983" data-name="Rectángulo 983" width="49.204" height="3.71" fill="#d1d1ff"/>
        </g>
      </g>
      <g id="Grupo_1251" data-name="Grupo 1251" transform="translate(25.789 3.767)">
        <path id="Trazado_2013" data-name="Trazado 2013" d="M493.807,359.248a10.283,10.283,0,1,1,10.283-10.283A10.294,10.294,0,0,1,493.807,359.248Zm0-20.346a10.063,10.063,0,1,0,10.063,10.063A10.075,10.075,0,0,0,493.807,338.9Z" transform="translate(-483.524 -333.747)" fill="#9192ff"/>
        <g id="Grupo_1250" data-name="Grupo 1250" transform="translate(6.048)">
          <circle id="Elipse_94" data-name="Elipse 94" cx="11.188" cy="11.188" r="11.188" fill="#ebebff"/>
          <path id="Trazado_2014" data-name="Trazado 2014" d="M615.546,359.127l-6.2-4.862.2-.259,5.992,4.7,3.341-2.829.213.251Z" transform="translate(-604.354 -347.726)" fill="#1b1b43"/>
        </g>
      </g>
      <g id="Grupo_1253" data-name="Grupo 1253" transform="translate(6.545 38.973)">
        <g id="Grupo_1252" data-name="Grupo 1252">
          <path id="Trazado_2015" data-name="Trazado 2015" d="M272.754,685h-5.681a1.655,1.655,0,0,0-1.655,1.655v5.681a1.655,1.655,0,0,0,1.655,1.655h4.054l1.747,2.412v-2.419a1.654,1.654,0,0,0,1.535-1.649v-5.681A1.655,1.655,0,0,0,272.754,685Z" transform="translate(-265.307 -684.89)" fill="#fff"/>
          <path id="Trazado_2016" data-name="Trazado 2016" d="M271.842,695.6l-1.913-2.641h-4a1.767,1.767,0,0,1-1.765-1.765v-5.681a1.767,1.767,0,0,1,1.765-1.765h5.681a1.767,1.767,0,0,1,1.765,1.765V691.2a1.771,1.771,0,0,1-1.535,1.748Zm-5.911-11.633a1.547,1.547,0,0,0-1.546,1.546V691.2a1.547,1.547,0,0,0,1.546,1.546h4.11l1.581,2.184v-2.182l.1-.007a1.55,1.55,0,0,0,1.433-1.54v-5.681a1.547,1.547,0,0,0-1.546-1.546Z" transform="translate(-264.166 -683.75)" fill="#9192ff"/>
        </g>
        <path id="Trazado_2017" data-name="Trazado 2017" d="M291.691,709.757l-2.274-3.285.541-.375,1.674,2.417L294.152,704l.574.321Z" transform="translate(-287.201 -702.227)" fill="#9192ff"/>
      </g>
      <rect id="Rectángulo_984" data-name="Rectángulo 984" width="134.787" height="0.329" transform="translate(4.425 134.621)" fill="#1b1b43"/>
    </g>
  </g>
</svg>
